<?xml version="1.0" encoding="utf-8"?>
<!-- Generator: Adobe Illustrator 23.0.1, SVG Export Plug-In . SVG Version: 6.00 Build 0)  -->
<svg version="1.1" id="Layer_1" xmlns="http://www.w3.org/2000/svg" xmlns:xlink="http://www.w3.org/1999/xlink" x="0px" y="0px"
	 viewBox="0 0 256 256" style="enable-background:new 0 0 256 256;" xml:space="preserve">
<style type="text/css">
	.st0{fill:none;stroke:#FFFFFF;stroke-width:6;stroke-linecap:round;stroke-linejoin:round;}
	.st1{fill:#FFFFFF;stroke:#FFFFFF;stroke-miterlimit:10;}
</style>
<title></title>
<circle class="st0" cx="128" cy="128" r="118.8"/>
<line class="st0" x1="128" y1="27.7" x2="128" y2="45.1"/>
<line class="st0" x1="102" y1="31.1" x2="106.5" y2="47.9"/>
<line class="st0" x1="77.8" y1="41.1" x2="86.5" y2="56.2"/>
<line class="st0" x1="57" y1="57" x2="69.4" y2="69.4"/>
<line class="st0" x1="41.1" y1="77.8" x2="56.2" y2="86.5"/>
<line class="st0" x1="214.9" y1="178.2" x2="199.8" y2="169.5"/>
<line class="st0" x1="31.1" y1="102" x2="47.9" y2="106.5"/>
<line class="st0" x1="224.9" y1="154" x2="208.1" y2="149.5"/>
<line class="st0" x1="27.7" y1="128" x2="45.1" y2="128"/>
<line class="st0" x1="228.3" y1="128" x2="210.9" y2="128"/>
<line class="st0" x1="31.1" y1="154" x2="47.9" y2="149.5"/>
<line class="st0" x1="224.9" y1="102" x2="208.1" y2="106.5"/>
<line class="st0" x1="41.1" y1="178.2" x2="56.2" y2="169.5"/>
<line class="st0" x1="214.9" y1="77.8" x2="199.8" y2="86.5"/>
<line class="st0" x1="198.9" y1="57" x2="186.6" y2="69.4"/>
<line class="st0" x1="178.2" y1="41.1" x2="169.5" y2="56.2"/>
<line class="st0" x1="154" y1="31.1" x2="149.5" y2="47.9"/>
<circle class="st1" cx="128" cy="127.6" r="8.7"/>
<line class="st0" x1="177" y1="100.1" x2="128" y2="127.6"/>
</svg>
